REM DIRINDEX 1\2\6,1\2\7,1\2\8,1\3\9,1\3\10,1\3\11,1\4\12,1\4\13,1\4\14,1\5\15,1\5\16,1\5\17,1\5\18
REM DIRNAME folder01,folder02,folder03,folder04,folder05,folder06,folder07,folder08,folder09,folder10,folder11,folder12,folder13,folder14,folder15,folder16,folder17,folder18
TITLE ""
FILE "" MP3
  TRACK 01 AUDIO
    TITLE "16:cjc019_6959"
    INDEX 01 00:00:00
  TRACK 02 AUDIO
    TITLE "0:"
    INDEX 01 00:00:64
  TRACK 03 AUDIO
    TITLE "18:cjc019_6960"
    INDEX 01 00:01:46
  TRACK 04 AUDIO
    TITLE "0:"
    INDEX 01 00:02:73
  TRACK 05 AUDIO
    TITLE "17:cjc019_6961"
    INDEX 01 00:03:49
  TRACK 06 AUDIO
    TITLE "0:"
    INDEX 01 00:04:52
  TRACK 07 AUDIO
    TITLE "16:cjc019_6962"
    INDEX 01 00:06:31
  TRACK 08 AUDIO
    TITLE "0:"
    INDEX 01 00:07:47
  TRACK 09 AUDIO
    TITLE "18:cjc019_6963"
    INDEX 01 00:08:23
  TRACK 10 AUDIO
    TITLE "0:"
    INDEX 01 00:10:74
  TRACK 11 AUDIO
    TITLE "17:cjc019_6964"
    INDEX 01 00:11:50
  TRACK 12 AUDIO
    TITLE "0:"
    INDEX 01 00:12:69
  TRACK 13 AUDIO
    TITLE "16:cjc019_6965"
    INDEX 01 00:14:49
  TRACK 14 AUDIO
    TITLE "0:"
    INDEX 01 00:15:72
  TRACK 15 AUDIO
    TITLE "18:cjc019_6966"
    INDEX 01 00:16:49
  TRACK 16 AUDIO
    TITLE "0:"
    INDEX 01 00:18:19
  TRACK 17 AUDIO
    TITLE "17:cjc019_6967"
    INDEX 01 00:18:74
  TRACK 18 AUDIO
    TITLE "0:"
    INDEX 01 00:20:24
  TRACK 19 AUDIO
    TITLE "16:cjc019_6968"
    INDEX 01 00:22:05
  TRACK 20 AUDIO
    TITLE "0:"
    INDEX 01 00:23:26
  TRACK 21 AUDIO
    TITLE "18:cjc019_6969"
    INDEX 01 00:24:02
  TRACK 22 AUDIO
    TITLE "0:"
    INDEX 01 00:25:64
  TRACK 23 AUDIO
    TITLE "17:cjc019_6970"
    INDEX 01 00:26:40
  TRACK 24 AUDIO
    TITLE "0:"
    INDEX 01 00:27:63
  TRACK 25 AUDIO
    TITLE "16:cjc019_6971"
    INDEX 01 00:29:42
  TRACK 26 AUDIO
    TITLE "0:"
    INDEX 01 00:30:65
  TRACK 27 AUDIO
    TITLE "18:cjc019_6972"
    INDEX 01 00:31:35
  TRACK 28 AUDIO
    TITLE "0:"
    INDEX 01 00:34:43
  TRACK 29 AUDIO
    TITLE "17:cjc019_6973"
    INDEX 01 00:35:21
  TRACK 30 AUDIO
    TITLE "0:"
    INDEX 01 00:36:42
  TRACK 31 AUDIO
    TITLE "16:cjc019_6974"
    INDEX 01 00:38:30
  TRACK 32 AUDIO
    TITLE "0:"
    INDEX 01 00:39:52
  TRACK 33 AUDIO
    TITLE "18:cjc019_6975"
    INDEX 01 00:40:28
  TRACK 34 AUDIO
    TITLE "0:"
    INDEX 01 00:42:66
  TRACK 35 AUDIO
    TITLE "17:cjc019_6976"
    INDEX 01 00:43:40
  TRACK 36 AUDIO
    TITLE "0:"
    INDEX 01 00:44:67
  TRACK 37 AUDIO
    TITLE "16:cjc019_6977"
    INDEX 01 00:46:45
  TRACK 38 AUDIO
    TITLE "0:"
    INDEX 01 00:48:04
  TRACK 39 AUDIO
    TITLE "18:cjc019_6978"
    INDEX 01 00:48:57
  TRACK 40 AUDIO
    TITLE "0:"
    INDEX 01 00:51:67
  TRACK 41 AUDIO
    TITLE "17:cjc019_6979"
    INDEX 01 00:52:45
  TRACK 42 AUDIO
    TITLE "0:"
    INDEX 01 00:54:07
  TRACK 43 AUDIO
    TITLE "16:cjc019_6980"
    INDEX 01 00:55:63
  TRACK 44 AUDIO
    TITLE "0:"
    INDEX 01 00:57:21
  TRACK 45 AUDIO
    TITLE "18:cjc019_6981"
    INDEX 01 00:58:03
  TRACK 46 AUDIO
    TITLE "0:"
    INDEX 01 01:01:17
  TRACK 47 AUDIO
    TITLE "17:cjc019_6982"
    INDEX 01 01:01:68
  TRACK 48 AUDIO
    TITLE "0:"
    INDEX 01 01:03:27
  TRACK 49 AUDIO
    TITLE "16:cjc019_6983"
    INDEX 01 01:05:07
  TRACK 50 AUDIO
    TITLE "0:"
    INDEX 01 01:06:38
  TRACK 51 AUDIO
    TITLE "18:cjc019_6984"
    INDEX 01 01:07:19
  TRACK 52 AUDIO
    TITLE "0:"
    INDEX 01 01:08:74
  TRACK 53 AUDIO
    TITLE "17:cjc019_6985"
    INDEX 01 01:09:54
  TRACK 54 AUDIO
    TITLE "0:"
    INDEX 01 01:11:05
  TRACK 55 AUDIO
    TITLE "16:cjc019_6986"
    INDEX 01 01:12:58
  TRACK 56 AUDIO
    TITLE "0:"
    INDEX 01 01:14:04
  TRACK 57 AUDIO
    TITLE "18:cjc019_6987"
    INDEX 01 01:14:61
  TRACK 58 AUDIO
    TITLE "0:"
    INDEX 01 01:19:30
  TRACK 59 AUDIO
    TITLE "17:cjc019_6988"
    INDEX 01 01:20:10
  TRACK 60 AUDIO
    TITLE "0:"
    INDEX 01 01:21:33
  TRACK 61 AUDIO
    TITLE "16:cjc019_6989"
    INDEX 01 01:23:13
  TRACK 62 AUDIO
    TITLE "0:"
    INDEX 01 01:24:20
  TRACK 63 AUDIO
    TITLE "18:cjc019_6990"
    INDEX 01 01:25:06
  TRACK 64 AUDIO
    TITLE "0:"
    INDEX 01 01:26:40
  TRACK 65 AUDIO
    TITLE "17:cjc019_6991"
    INDEX 01 01:27:22
  TRACK 66 AUDIO
    TITLE "0:"
    INDEX 01 01:28:33
  TRACK 67 AUDIO
    TITLE "16:cjc019_6992"
    INDEX 01 01:30:13
  TRACK 68 AUDIO
    TITLE "0:"
    INDEX 01 01:31:26
  TRACK 69 AUDIO
    TITLE "18:cjc019_6993"
    INDEX 01 01:32:08
  TRACK 70 AUDIO
    TITLE "0:"
    INDEX 01 01:35:04
  TRACK 71 AUDIO
    TITLE "17:cjc019_6994"
    INDEX 01 01:35:55
  TRACK 72 AUDIO
    TITLE "0:"
    INDEX 01 01:36:68
  TRACK 73 AUDIO
    TITLE "16:cjc019_6995"
    INDEX 01 01:38:53
  TRACK 74 AUDIO
    TITLE "0:"
    INDEX 01 01:40:01
  TRACK 75 AUDIO
    TITLE "18:cjc019_6996"
    INDEX 01 01:40:58
  TRACK 76 AUDIO
    TITLE "0:"
    INDEX 01 01:45:04
  TRACK 77 AUDIO
    TITLE "17:cjc019_6997"
    INDEX 01 01:45:57
  TRACK 78 AUDIO
    TITLE "0:"
    INDEX 01 01:47:09
  TRACK 79 AUDIO
    TITLE "16:cjc019_6998"
    INDEX 01 01:48:67
  TRACK 80 AUDIO
    TITLE "0:"
    INDEX 01 01:50:19
  TRACK 81 AUDIO
    TITLE "18:cjc019_6999"
    INDEX 01 01:50:70
  TRACK 82 AUDIO
    TITLE "0:"
    INDEX 01 01:52:30
  TRACK 83 AUDIO
    TITLE "17:cjc019_7000"
    INDEX 01 01:53:06
  TRACK 84 AUDIO
    TITLE "0:"
    INDEX 01 01:54:35
  TRACK 85 AUDIO
    TITLE "16:cjc019_7001"
    INDEX 01 01:56:14
  TRACK 86 AUDIO
    TITLE "0:"
    INDEX 01 01:57:45
  TRACK 87 AUDIO
    TITLE "18:cjc019_7002"
    INDEX 01 01:58:29
  TRACK 88 AUDIO
    TITLE "0:"
    INDEX 01 02:02:60
  TRACK 89 AUDIO
    TITLE "17:cjc019_7003"
    INDEX 01 02:03:39
  TRACK 90 AUDIO
    TITLE "0:"
    INDEX 01 02:05:03
  TRACK 91 AUDIO
    TITLE "16:cjc019_7004"
    INDEX 01 02:06:59
  TRACK 92 AUDIO
    TITLE "0:"
    INDEX 01 02:07:59
  TRACK 93 AUDIO
    TITLE "18:cjc019_7005"
    INDEX 01 02:08:43
  TRACK 94 AUDIO
    TITLE "0:"
    INDEX 01 02:11:31
  TRACK 95 AUDIO
    TITLE "17:cjc019_7006"
    INDEX 01 02:12:11
  TRACK 96 AUDIO
    TITLE "0:"
    INDEX 01 02:13:20
  TRACK 97 AUDIO
    TITLE "16:cjc019_7007"
    INDEX 01 02:15:03
  TRACK 98 AUDIO
    TITLE "0:"
    INDEX 01 02:16:01
  TRACK 99 AUDIO
    TITLE "18:cjc019_7008"
    INDEX 01 02:16:62
  TRACK 100 AUDIO
    TITLE "0:"
    INDEX 01 02:19:60
  TRACK 101 AUDIO
    TITLE "17:cjc019_7009"
    INDEX 01 02:20:40
  TRACK 102 AUDIO
    TITLE "0:"
    INDEX 01 02:21:43
  TRACK 103 AUDIO
    TITLE "16:cjc019_7010"
    INDEX 01 02:23:30
  TRACK 104 AUDIO
    TITLE "0:"
    INDEX 01 02:24:38
  TRACK 105 AUDIO
    TITLE "18:cjc019_7011"
    INDEX 01 02:25:25
  TRACK 106 AUDIO
    TITLE "0:"
    INDEX 01 02:28:59
  TRACK 107 AUDIO
    TITLE "17:cjc019_7012"
    INDEX 01 02:29:35
  TRACK 108 AUDIO
    TITLE "0:"
    INDEX 01 02:30:48
